<svg id="Layer_1" data-name="Layer 1" xmlns="http://www.w3.org/2000/svg" width="56" height="56" viewBox="0 0 56 56">
  <title>56dp-01</title>
  <g>
    <path d="M15,33l2.37-4.73A6,6,0,0,0,18,25.58V23A6,6,0,0,0,6,23v2.58a6,6,0,0,0,.63,2.68L9,33v1L4.1,35.63A6,6,0,0,0,0,41.32V46H24V37l-9-3V33Z" style="fill: #98d8f4"/>
    <path d="M51.9,35.63L47,34V33l2.37-4.73A6,6,0,0,0,50,25.58V23a6,6,0,0,0-12,0v2.58a6,6,0,0,0,.63,2.68L41.1,33.2a3.22,3.22,0,0,0,.64.86L32,37v9H56V41.32A6,6,0,0,0,51.9,35.63Z" style="fill: #98d8f4"/>
  </g>
  <path d="M39.83,28.73L33,25H23l-6.83,3.73a8,8,0,0,0-4.17,7V46H44V35.75A8,8,0,0,0,39.83,28.73Z" style="fill: #fff"/>
  <g>
    <path d="M15.5,44.5v-9a4.5,4.5,0,0,1,2.31-3.93l6.69-3.71V25.5h7v2.38l6.69,3.71a4.5,4.5,0,0,1,2.31,3.93v9h-25v0Z" style="fill: #98d8f4"/>
    <path d="M30,27v1.77l1.54,0.86,5.91,3.29A3,3,0,0,1,39,35.53V43H17V35.53a3,3,0,0,1,1.54-2.62l5.91-3.29L26,28.77V27h4m3-3H23v3l-5.91,3.29A6,6,0,0,0,14,35.53V46H42V35.53a6,6,0,0,0-3.09-5.24L33,27V24h0Z" style="fill: #006097"/>
  </g>
  <g>
    <path d="M28,26.5a3.33,3.33,0,0,1-3-1.85l-1.39-2.79a10.55,10.55,0,0,1-1.11-4.7V15a5.5,5.5,0,0,1,11,0v2.17a10.55,10.55,0,0,1-1.11,4.7L31,24.65a3.33,3.33,0,0,1-3,1.85h0Z" style="fill: #98d8f4"/>
    <path d="M28,11a4,4,0,0,1,4,4v2.17a9,9,0,0,1-1,4L29.66,24a1.85,1.85,0,0,1-3.31,0L25,21.19a9,9,0,0,1-1-4V15a4,4,0,0,1,4-4m0-3h0a7,7,0,0,0-7,7v2.17a12,12,0,0,0,1.27,5.37l1.39,2.78A4.85,4.85,0,0,0,28,28h0a4.85,4.85,0,0,0,4.34-2.68l1.39-2.78A12,12,0,0,0,35,17.17V15a7,7,0,0,0-7-7h0Z" style="fill: #006097"/>
  </g>
</svg>
