<?xml version="1.0" encoding="utf-8"?>
<!-- Generator: Adobe Illustrator 19.2.1, SVG Export Plug-In . SVG Version: 6.00 Build 0)  -->
<svg version="1.1" id="Layer_1" xmlns="http://www.w3.org/2000/svg" xmlns:xlink="http://www.w3.org/1999/xlink" x="0px" y="0px"
	 width="56px" height="56px" viewBox="0 0 56 56" style="enable-background:new 0 0 56 56;" xml:space="preserve">
<style type="text/css">
	.st0{fill:#98D8F4;}
	.st1{fill:#006097;}
</style>
<title>56dp</title>
<path class="st0" d="M28,27.8l12-21l0,0c-7.6-3.8-16.4-3.8-24,0l0,0L28,27.8z"/>
<circle class="st1" cx="28" cy="28" r="3"/>
<path class="st1" d="M34.2,23c2.8,3.4,2.2,8.5-1.2,11.2s-8.5,2.2-11.2-1.2c-2.4-2.9-2.4-7.1,0-10l-1-1.8c-3.8,4-3.6,10.3,0.4,14.1
	s10.3,3.6,14.1-0.4C39,31,39,25,35.3,21.2L34.2,23z"/>
<path class="st1" d="M45,28c0-5.1-2.3-9.9-6.2-13.1l-1,1.8c6.2,5.4,6.9,14.8,1.6,21.1c-0.7,0.8-1.4,1.5-2.3,2.1
	c-1.1-1.2-3-1.3-4.2-0.1c-0.7,0.7-1.1,1.7-0.9,2.7c-7.9,2.3-16.2-2.3-18.4-10.3c-0.6-2-0.7-4.1-0.4-6.2c1.7-0.1,2.9-1.5,2.8-3.2
	c0-0.8-0.4-1.6-1-2.1c0.8-1.5,2-2.9,3.3-4l-1-1.8c-1.7,1.4-3.1,3.1-4.2,5.1l0,0c-1.7,0-3,1.4-3,3c0,0.9,0.5,1.8,1.2,2.4
	c-1.4,9.3,4.9,18,14.2,19.4c2.5,0.4,5.1,0.2,7.6-0.5c1.2,1.1,3.1,1,4.2-0.2c0.5-0.6,0.8-1.3,0.8-2c0-0.1,0-0.2,0-0.2
	C42.4,38.6,45,33.4,45,28z"/>
<path class="st1" d="M42.3,8.8l-1.5,2.6c9.2,7.1,10.9,20.3,3.8,29.5s-20.3,10.9-29.5,3.8S4.3,24.4,11.4,15.2
	c1.1-1.4,2.4-2.7,3.8-3.8l-1.5-2.6C3,16.7,0.8,31.7,8.8,42.3s23,12.8,33.6,4.9s12.8-23,4.9-33.6C45.9,11.8,44.2,10.1,42.3,8.8z"/>
</svg>
