<svg id="Layer_1" data-name="Layer 1" xmlns="http://www.w3.org/2000/svg" width="56" height="56" viewBox="0 0 56 56">
  <defs>
    <style>
      .cls-1 {
        fill: #9bdaf3;
      }

      .cls-2 {
        fill: #005e93;
      }

      .cls-3 {
        fill: #1795d6;
      }
    </style>
  </defs>
  <title>56dp</title>
  <path class="cls-1" d="M7,13v5H49V13H7Zm3.5,4a1.5,1.5,0,1,1,1.5-1.5A1.5,1.5,0,0,1,10.5,17Zm4,0a1.5,1.5,0,1,1,1.5-1.5A1.5,1.5,0,0,1,14.5,17Zm4,0a1.5,1.5,0,1,1,1.5-1.5A1.5,1.5,0,0,1,18.5,17Z"/>
  <circle class="cls-2" cx="10.5" cy="15.52" r="1.5"/>
  <circle class="cls-2" cx="14.5" cy="15.52" r="1.5"/>
  <circle class="cls-2" cx="18.5" cy="15.52" r="1.5"/>
  <path class="cls-2" d="M50,10H6a2,2,0,0,0-2,2V44a2,2,0,0,0,2,2H50a2,2,0,0,0,2-2V12A2,2,0,0,0,50,10Zm-1,3v5H7V13H49ZM7,43V21H49V43H7Z"/>
  <path class="cls-3" d="M41.5,23a4.46,4.46,0,0,0-4.42,5.31l-5.71,4.76a4.43,4.43,0,0,0-6.41.67l-6-2c0-.08,0-0.16,0-0.24a4.54,4.54,0,1,0-1.19,3h0L24,36.58a4.5,4.5,0,1,0,8.91-.9l5.71-4.76h0A4.46,4.46,0,0,0,41.5,32,4.5,4.5,0,0,0,41.5,23Zm-27,10A1.5,1.5,0,1,1,16,31.5,1.5,1.5,0,0,1,14.5,33Zm14,5A1.5,1.5,0,1,1,30,36.5,1.5,1.5,0,0,1,28.5,38Zm13-9A1.5,1.5,0,1,1,43,27.5,1.5,1.5,0,0,1,41.5,29Z"/>
</svg>
