<?xml version="1.0" encoding="iso-8859-1"?>
<!-- Generator: Adobe Illustrator 19.0.1, SVG Export Plug-In . SVG Version: 6.00 Build 0)  -->
<svg version="1.1" xmlns="http://www.w3.org/2000/svg" xmlns:xlink="http://www.w3.org/1999/xlink" x="0px" y="0px"
	 viewBox="0 0 56 56" style="enable-background:new 0 0 56 56;" xml:space="preserve" width="56px" height="56px">
<g id="Layer_1_1_">
	<rect x="12" y="4" style="fill:#005E93;" width="3" height="7"/>
	<rect x="17" y="4" style="fill:#005E93;" width="3" height="7"/>
	<rect x="22" y="4" style="fill:#005E93;" width="3" height="7"/>
	<rect x="27" y="4" style="fill:#005E93;" width="3" height="7"/>
	<rect x="11" y="16" style="fill:#00A0DC;" width="20" height="3"/>
	<rect x="11" y="22" style="fill:#00A0DC;" width="20" height="3"/>
	<rect x="11" y="28" style="fill:#00A0DC;" width="20" height="3"/>
	<rect x="11" y="34" style="fill:#00A0DC;" width="20" height="3"/>
	<rect x="11" y="40" style="fill:#00A0DC;" width="14" height="3"/>
	<g>
		<path style="fill:#005E93;" d="M33,9v40H9V9H33 M34,6H8C6.895,6,6,6.895,6,8v42c0,1.105,0.895,2,2,2h26c1.105,0,2-0.895,2-2V8
			C36,6.895,35.105,6,34,6L34,6z"/>
	</g>
	<g>

			<rect x="33.12" y="17.443" transform="matrix(0.7946 0.6071 -0.6071 0.7946 23.4734 -16.4983)" style="fill:#FFFFFF;" width="6" height="18"/>
		<path style="fill:#9BDAF3;" d="M45.647,12.327l1.589,1.214c0.878,0.671,1.046,1.926,0.375,2.803l-1.821,2.384l-4.768-3.643
			l1.821-2.384C43.514,11.825,44.769,11.657,45.647,12.327z"/>
		<line style="fill:none;stroke:#005E93;stroke-width:3;stroke-miterlimit:10;" x1="27.691" y1="40.768" x2="24.513" y2="38.339"/>
		<path style="fill:#005E93;" d="M49.057,11.158l-1.589-1.214c-2.194-1.677-5.483-1.059-7.346,1.379L23.459,33.13l-0.503,7.8
			c-0.046,0.712,0.278,1.333,0.782,1.718c0.504,0.385,1.188,0.534,1.863,0.303l7.394-2.535l16.663-21.807
			C51.52,16.17,51.251,12.834,49.057,11.158z M42.506,13.144c0.841-1.101,2.279-1.475,3.141-0.816l1.589,1.214
			c0.861,0.658,0.879,2.144,0.038,3.245l-1.484,1.942l-4.768-3.643L42.506,13.144z M43.968,21.113L33.039,35.415l-4.768-3.643
			L39.2,17.47L43.968,21.113z M26.046,39.626l0.348-5.397l0.056-0.073l4.768,3.643l-0.056,0.073L26.046,39.626z"/>
		<polygon style="fill:#00A0DC;" points="31.218,37.799 26.45,34.156 26.395,34.229 26.092,38.917 26.719,39.396 31.162,37.872
			"/>
	</g>
	<g>
		<rect style="fill:none;" width="56" height="56"/>
	</g>
</g>
<g id="Layer_1">
</g>
</svg>
